<svg width="76" height="76" fill="none" xmlns="http://www.w3.org/2000/svg"><path d="M26.125 51.875h-1.188C11.188 51.875 0 40.689 0 26.937 0 13.188 11.186 2 24.938 2c7.255 0 13.893 3.1 18.715 8.728l-1.806 1.544c-4.358-5.095-10.366-7.897-16.91-7.897-12.445 0-22.562 10.117-22.562 22.563 0 12.445 10.117 22.562 22.563 22.562h1.187v2.375z" fill="#00D5FF"/><path d="M9.155 44.406l-1.686-1.687 16.28-16.268V3.187h2.375v24.237L9.155 44.406z" fill="#00D5FF"/><path d="M24.938 25.75H1.188v2.375h23.75V25.75zm-1.188 47.5h-2.375v-8.313c0-9.511 5.284-11.518 10.866-13.644 2.066-.784 4.203-1.603 6.353-2.826l1.175 2.066c-2.303 1.318-4.63 2.209-6.685 2.98-5.629 2.138-9.334 3.551-9.334 11.424v8.313zm52.25 0h-2.375v-8.313c0-7.873-3.717-9.286-9.334-11.423-2.054-.784-4.382-1.663-6.685-2.981l1.175-2.066c2.15 1.223 4.287 2.042 6.353 2.826C70.727 53.419 76 55.426 76 64.937v8.313z" fill="#00D5FF"/><path d="M53.676 55.699l-4.988-2.494-4.987 2.494-6.045-6.045 3.337-5.01 7.683 1.282 7.683-1.283 3.337 5.011-6.044 6.045h.024zm-4.988-5.154l4.513 2.256 3.455-3.455-1.413-2.114-6.567 1.092-6.567-1.092-1.413 2.114 3.456 3.455 4.512-2.256h.024z" fill="#00D5FF"/><path d="M55.813 41.188h-2.376v4.75h2.376v-4.75zm-11.875 0h-2.376v4.75h2.376v-4.75zm5.937 20.187H47.5v2.375h2.375v-2.375zm0-4.75H47.5V59h2.375v-2.375z" fill="#00D5FF"/><path d="M48.688 43.563c-.155 0-3.872-.012-6.472-1.319l-.131-.07c-.166-.108-4.014-2.768-5.273-11.508V25.75h2.376v4.667c1.02 7.03 3.8 9.452 4.18 9.75 2.09.997 5.284 1.02 5.32 1.02.035 0 3.23-.011 5.32-1.02.368-.298 3.158-2.732 4.18-9.75V25.75h2.374v4.916c-1.258 8.74-5.118 11.4-5.284 11.507l-.13.071c-2.601 1.295-6.318 1.319-6.472 1.319h.011zM60.563 25.75h-2.376c0-6.567-2.933-9.5-9.5-9.5-6.566 0-9.5 2.933-9.5 9.5h-2.374c0-7.885 3.99-11.875 11.874-11.875 7.886 0 11.876 3.99 11.876 11.875z" fill="#00D5FF"/><path d="M54.684 29.431l-11.875-4.75-4.275 2.126-1.07-2.114 5.226-2.624 11.875 4.75 4.275-2.126 1.069 2.114-5.225 2.624zM33.25 66.125h-2.375v7.125h2.375v-7.125zm33.25 0h-2.375v7.125H66.5v-7.125z" fill="#00D5FF"/></svg>